<svg width="20" height="20" viewBox="0 0 20 20" fill="none" xmlns="http://www.w3.org/2000/svg">
<path d="M16.7479 3.56378C16.4214 2.88155 15.9063 2.30716 15.2634 1.90858C14.6206 1.51001 13.8771 1.30394 13.1208 1.31477C12.3646 1.32559 11.6272 1.55287 10.9961 1.96968C10.365 2.3865 9.86647 2.9754 9.55961 3.6667H6.04461C5.41472 3.6667 4.81063 3.91692 4.36523 4.36232C3.91983 4.80772 3.66961 5.41181 3.66961 6.0417V9.20837C3.66961 9.41833 3.75301 9.61969 3.90148 9.76816C4.04995 9.91663 4.25131 10 4.46127 10C4.67124 10 4.8726 9.91663 5.02107 9.76816C5.16953 9.61969 5.25294 9.41833 5.25294 9.20837V6.0417C5.25294 5.83174 5.33635 5.63037 5.48481 5.48191C5.63328 5.33344 5.83464 5.25003 6.04461 5.25003H8.24544C7.85136 5.68358 7.63143 6.24749 7.62794 6.83337C7.62794 7.46325 7.87816 8.06735 8.32356 8.51274C8.76896 8.95814 9.37305 9.20837 10.0029 9.20837H15.8059C16.4952 9.21333 17.1637 8.97236 17.6914 8.52874C18.219 8.08511 18.5712 7.46789 18.6847 6.78794C18.7982 6.10798 18.6655 5.40984 18.3105 4.81891C17.9556 4.22797 17.4015 3.78295 16.7479 3.56378ZM15.8059 7.62503H10.0029C9.79298 7.62503 9.59161 7.54162 9.44315 7.39316C9.29468 7.24469 9.21127 7.04333 9.21127 6.83337C9.21127 6.6234 9.29468 6.42204 9.44315 6.27357C9.59161 6.12511 9.79298 6.0417 10.0029 6.0417C10.2129 6.0417 10.4143 5.95829 10.5627 5.80982C10.7112 5.66136 10.7946 5.45999 10.7946 5.25003C10.7882 4.68506 10.9835 4.13632 11.3453 3.70235C11.7071 3.26838 12.2117 2.97761 12.7686 2.88225C13.3255 2.78689 13.8982 2.89319 14.3837 3.18206C14.8693 3.47094 15.236 3.92346 15.4179 4.45837C15.4632 4.5944 15.5445 4.7156 15.6533 4.80902C15.762 4.90244 15.8941 4.96457 16.0354 4.98878C16.345 5.04007 16.6258 5.2011 16.8264 5.44242C17.027 5.68373 17.1341 5.9892 17.1279 6.30295C17.1279 6.47657 17.0937 6.64849 17.0273 6.80889C16.9609 6.96929 16.8635 7.11504 16.7407 7.2378C16.6179 7.36057 16.4722 7.45795 16.3118 7.52439C16.1514 7.59084 15.9795 7.62503 15.8059 7.62503ZM15.5446 10.7917C15.3346 10.7917 15.1333 10.8751 14.9848 11.0236C14.8363 11.172 14.7529 11.3734 14.7529 11.5834V13.9584C14.7529 14.1683 14.6695 14.3697 14.5211 14.5182C14.3726 14.6666 14.1712 14.75 13.9613 14.75H12.1721C12.0191 14.3582 11.7826 14.0045 11.4791 13.7133C11.1756 13.4221 10.8124 13.2004 10.4146 13.0638C10.0559 12.3024 9.46378 11.6753 8.72434 11.2733C7.9849 10.8714 7.1366 10.7156 6.30259 10.8285C5.46858 10.9415 4.69229 11.3174 4.08642 11.9015C3.48055 12.4857 3.07665 13.2478 2.93336 14.0771C2.39723 14.2533 1.94137 14.6147 1.64745 15.0965C1.35354 15.5782 1.24078 16.1489 1.32939 16.7063C1.41799 17.2636 1.70216 17.7712 2.13099 18.1381C2.55981 18.5049 3.10526 18.7071 3.66961 18.7084H9.47252C10.1504 18.7084 10.8067 18.4707 11.3275 18.0368C11.8482 17.6028 12.2003 17.0001 12.3225 16.3334H13.9613C14.5912 16.3334 15.1953 16.0831 15.6407 15.6377C16.0861 15.1923 16.3363 14.5883 16.3363 13.9584V11.5834C16.3363 11.3734 16.2529 11.172 16.1044 11.0236C15.9559 10.8751 15.7546 10.7917 15.5446 10.7917ZM9.47252 17.125H3.66961C3.45964 17.125 3.25828 17.0416 3.10981 16.8932C2.96135 16.7447 2.87794 16.5433 2.87794 16.3334C2.87794 16.1234 2.96135 15.922 3.10981 15.7736C3.25828 15.6251 3.45964 15.5417 3.66961 15.5417C3.87957 15.5417 4.08093 15.4583 4.2294 15.3098C4.37787 15.1614 4.46127 14.96 4.46127 14.75C4.45489 14.1851 4.65012 13.6363 5.01192 13.2024C5.37372 12.7684 5.87838 12.4776 6.43528 12.3823C6.99218 12.2869 7.56483 12.3932 8.0504 12.6821C8.53598 12.9709 8.90266 13.4235 9.08461 13.9584C9.12986 14.0944 9.2112 14.2156 9.31996 14.309C9.42871 14.4024 9.5608 14.4646 9.70211 14.4888C10.0117 14.5401 10.2925 14.7011 10.4931 14.9424C10.6937 15.1837 10.8007 15.4892 10.7946 15.8029C10.7946 15.9766 10.7604 16.1485 10.694 16.3089C10.6275 16.4693 10.5301 16.615 10.4074 16.7378C10.2846 16.8606 10.1389 16.958 9.97846 17.0244C9.81806 17.0908 9.64614 17.125 9.47252 17.125Z" fill="#6245E7"/>
</svg>
