<svg width="20" height="20" viewBox="0 0 20 20" fill="none" xmlns="http://www.w3.org/2000/svg">
<path d="M13.1696 16.3334H6.83626C6.20637 16.3334 5.60228 16.0832 5.15688 15.6378C4.71149 15.1924 4.46126 14.5883 4.46126 13.9584V6.04171C4.46126 5.83174 4.37786 5.63038 4.22939 5.48191C4.08092 5.33345 3.87956 5.25004 3.6696 5.25004C3.45963 5.25004 3.25827 5.33345 3.1098 5.48191C2.96134 5.63038 2.87793 5.83174 2.87793 6.04171V13.9584C2.87793 15.0082 3.29497 16.015 4.0373 16.7573C4.77963 17.4997 5.78645 17.9167 6.83626 17.9167H13.1696C13.3796 17.9167 13.5809 17.8333 13.7294 17.6848C13.8779 17.5364 13.9613 17.335 13.9613 17.125C13.9613 16.9151 13.8779 16.7137 13.7294 16.5652C13.5809 16.4168 13.3796 16.3334 13.1696 16.3334ZM8.4196 10.7917C8.4196 11.0017 8.503 11.203 8.65147 11.3515C8.79994 11.5 9.0013 11.5834 9.21126 11.5834H13.1696C13.3796 11.5834 13.5809 11.5 13.7294 11.3515C13.8779 11.203 13.9613 11.0017 13.9613 10.7917C13.9613 10.5817 13.8779 10.3804 13.7294 10.2319C13.5809 10.0834 13.3796 10 13.1696 10H9.21126C9.0013 10 8.79994 10.0834 8.65147 10.2319C8.503 10.3804 8.4196 10.5817 8.4196 10.7917ZM17.1279 7.57754C17.1197 7.50481 17.1038 7.43316 17.0804 7.36379V7.29254C17.0424 7.21114 16.9916 7.13632 16.93 7.07087L12.18 2.32087C12.1146 2.2593 12.0397 2.20852 11.9583 2.17046C11.9347 2.1671 11.9107 2.1671 11.8871 2.17046C11.8067 2.12434 11.7179 2.09473 11.6258 2.08337H8.4196C7.78971 2.08337 7.18562 2.3336 6.74022 2.779C6.29482 3.22439 6.0446 3.82848 6.0446 4.45837V12.375C6.0446 13.0049 6.29482 13.609 6.74022 14.0544C7.18562 14.4998 7.78971 14.75 8.4196 14.75H14.7529C15.3828 14.75 15.9869 14.4998 16.4323 14.0544C16.8777 13.609 17.1279 13.0049 17.1279 12.375V7.62504C17.1279 7.62504 17.1279 7.62504 17.1279 7.57754ZM12.3779 4.78296L14.4283 6.83337H13.1696C12.9596 6.83337 12.7583 6.74997 12.6098 6.6015C12.4613 6.45303 12.3779 6.25167 12.3779 6.04171V4.78296ZM15.5446 12.375C15.5446 12.585 15.4612 12.7864 15.3127 12.9348C15.1643 13.0833 14.9629 13.1667 14.7529 13.1667H8.4196C8.20963 13.1667 8.00827 13.0833 7.8598 12.9348C7.71134 12.7864 7.62793 12.585 7.62793 12.375V4.45837C7.62793 4.24841 7.71134 4.04705 7.8598 3.89858C8.00827 3.75011 8.20963 3.66671 8.4196 3.66671H10.7946V6.04171C10.7967 6.31178 10.8449 6.57951 10.9371 6.83337H9.21126C9.0013 6.83337 8.79994 6.91678 8.65147 7.06525C8.503 7.21371 8.4196 7.41508 8.4196 7.62504C8.4196 7.835 8.503 8.03637 8.65147 8.18483C8.79994 8.3333 9.0013 8.41671 9.21126 8.41671H15.5446V12.375Z" fill="#6245E7"/>
</svg>
