<svg width="20" height="19" viewBox="0 0 20 19" fill="none" xmlns="http://www.w3.org/2000/svg">
<path d="M4.46143 14.25H7.81809C7.92228 14.2506 8.02556 14.2307 8.12202 14.1913C8.21847 14.1519 8.3062 14.0938 8.38018 14.0204L13.8585 8.53419L16.1068 6.33336C16.181 6.25976 16.2399 6.1722 16.2801 6.07573C16.3203 5.97926 16.341 5.87578 16.341 5.77127C16.341 5.66676 16.3203 5.56329 16.2801 5.46682C16.2399 5.37034 16.181 5.28278 16.1068 5.20919L12.7502 1.81294C12.6766 1.73874 12.589 1.67984 12.4925 1.63965C12.3961 1.59946 12.2926 1.57877 12.1881 1.57877C12.0836 1.57877 11.9801 1.59946 11.8836 1.63965C11.7872 1.67984 11.6996 1.73874 11.626 1.81294L9.39351 4.05336L3.89934 9.53961C3.82597 9.61358 3.76792 9.70131 3.72852 9.79776C3.68913 9.89422 3.66916 9.9975 3.66976 10.1017V13.4584C3.66976 13.6683 3.75317 13.8697 3.90163 14.0181C4.0501 14.1666 4.25146 14.25 4.46143 14.25ZM12.1881 3.49127L14.4285 5.73169L13.3043 6.85586L11.0639 4.61544L12.1881 3.49127ZM5.25309 10.4263L9.94768 5.73169L12.1881 7.97211L7.49351 12.6667H5.25309V10.4263ZM17.1281 15.8334H2.87809C2.66813 15.8334 2.46677 15.9168 2.3183 16.0652C2.16983 16.2137 2.08643 16.4151 2.08643 16.625C2.08643 16.835 2.16983 17.0363 2.3183 17.1848C2.46677 17.3333 2.66813 17.4167 2.87809 17.4167H17.1281C17.3381 17.4167 17.5394 17.3333 17.6879 17.1848C17.8364 17.0363 17.9198 16.835 17.9198 16.625C17.9198 16.4151 17.8364 16.2137 17.6879 16.0652C17.5394 15.9168 17.3381 15.8334 17.1281 15.8334Z" fill="#6245E7"/>
</svg>
