<svg xmlns="http://www.w3.org/2000/svg" width="15" height="16" fill="none"><g fill="#667085" clip-path="url(#a)"><path d="M11.55 1.207 4.066 8.689a3.047 3.047 0 0 0-.898 2.169v.824a.614.614 0 0 0 .614.614h.824a3.048 3.048 0 0 0 2.17-.899l7.48-7.481a1.917 1.917 0 0 0 0-2.71 1.96 1.96 0 0 0-2.708 0Zm1.84 1.84L5.908 10.53a1.853 1.853 0 0 1-1.301.538h-.21v-.21c0-.488.194-.956.538-1.302l7.482-7.481a.704.704 0 0 1 .973 0 .689.689 0 0 1 0 .973Z"/><path d="M14.215 6.146a.614.614 0 0 0-.614.614V9.84h-2.455a1.84 1.84 0 0 0-1.84 1.841v2.455H3.169a1.84 1.84 0 0 1-1.841-1.841V3.704a1.841 1.841 0 0 1 1.84-1.84h5.55a.614.614 0 1 0 0-1.228h-5.55A3.072 3.072 0 0 0 .102 3.704v8.592a3.072 3.072 0 0 0 3.068 3.068h6.96a3.048 3.048 0 0 0 2.17-.899l1.63-1.63a3.047 3.047 0 0 0 .9-2.17V6.76a.614.614 0 0 0-.614-.614Zm-2.783 7.452a1.825 1.825 0 0 1-.9.49v-2.406a.614.614 0 0 1 .614-.614h2.41a1.85 1.85 0 0 1-.492.899l-1.632 1.63Z"/></g><defs><clipPath id="a"><path fill="#fff" d="M.1.636H14.83v14.728H.1z"/></clipPath></defs></svg>