

<svg xmlns="http://www.w3.org/2000/svg" width="16" height="16" fill="none"><g clip-path="url(#a)"><path fill="#667085" d="M11.198 9.227a.614.614 0 0 1-.614.614H5.676a.614.614 0 0 1 0-1.227h4.91a.614.614 0 0 1 .613.613Zm-2.454 1.841H5.675a.614.614 0 0 0 0 1.228h3.069a.614.614 0 1 0 0-1.228Zm5.523-3.998v5.226a3.072 3.072 0 0 1-3.069 3.068H5.062a3.072 3.072 0 0 1-3.069-3.068V3.704A3.072 3.072 0 0 1 5.062.636h2.77a4.27 4.27 0 0 1 3.038 1.258l2.138 2.14a4.266 4.266 0 0 1 1.259 3.036Zm-4.265-4.308a3.075 3.075 0 0 0-.645-.479v2.649a.614.614 0 0 0 .614.613h2.648a3.056 3.056 0 0 0-.479-.644l-2.138-2.14ZM13.04 7.07c0-.101-.02-.198-.029-.297H9.97a1.841 1.841 0 0 1-1.84-1.841v-3.04c-.1-.009-.197-.029-.298-.029h-2.77A1.84 1.84 0 0 0 3.22 3.704v8.592a1.841 1.841 0 0 0 1.84 1.84h6.137a1.841 1.841 0 0 0 1.841-1.84V7.07Z"/></g><defs><clipPath id="a"><path fill="#fff" d="M.766.636h14.728v14.728H.766z"/></clipPath></defs></svg>