<svg width="16" height="16" viewBox="0 0 16 16" fill="none" xmlns="http://www.w3.org/2000/svg">
<path d="M4.72675 3.09071C4.72675 2.76521 4.85606 2.45303 5.08623 2.22286C5.31639 1.9927 5.62857 1.86339 5.95407 1.86339H9.63604C9.96155 1.86339 10.2737 1.9927 10.5039 2.22286C10.7341 2.45303 10.8634 2.76521 10.8634 3.09071V4.31803H13.318C13.4808 4.31803 13.6368 4.38269 13.7519 4.49777C13.867 4.61286 13.9317 4.76894 13.9317 4.9317C13.9317 5.09445 13.867 5.25054 13.7519 5.36562C13.6368 5.4807 13.4808 5.54536 13.318 5.54536H12.662L12.13 12.9964C12.1079 13.3061 11.9694 13.5959 11.7422 13.8074C11.515 14.019 11.2161 14.1366 10.9057 14.1366H4.6838C4.37337 14.1366 4.07447 14.019 3.84731 13.8074C3.62014 13.5959 3.48158 13.3061 3.45954 12.9964L2.92873 5.54536H2.27211C2.10936 5.54536 1.95327 5.4807 1.83818 5.36562C1.7231 5.25054 1.65845 5.09445 1.65845 4.9317C1.65845 4.76894 1.7231 4.61286 1.83818 4.49777C1.95327 4.38269 2.10936 4.31803 2.27211 4.31803H4.72675V3.09071ZM5.95407 4.31803H9.63604V3.09071H5.95407V4.31803ZM4.1585 5.54536L4.68441 12.9093H10.9063L11.4322 5.54536H4.1585ZM6.56774 6.77268C6.73049 6.77268 6.88658 6.83733 7.00166 6.95242C7.11674 7.0675 7.1814 7.22359 7.1814 7.38634V11.0683C7.1814 11.2311 7.11674 11.3871 7.00166 11.5022C6.88658 11.6173 6.73049 11.682 6.56774 11.682C6.40498 11.682 6.2489 11.6173 6.13381 11.5022C6.01873 11.3871 5.95407 11.2311 5.95407 11.0683V7.38634C5.95407 7.22359 6.01873 7.0675 6.13381 6.95242C6.2489 6.83733 6.40498 6.77268 6.56774 6.77268ZM9.02238 6.77268C9.18513 6.77268 9.34122 6.83733 9.4563 6.95242C9.57139 7.0675 9.63604 7.22359 9.63604 7.38634V11.0683C9.63604 11.2311 9.57139 11.3871 9.4563 11.5022C9.34122 11.6173 9.18513 11.682 9.02238 11.682C8.85963 11.682 8.70354 11.6173 8.58846 11.5022C8.47337 11.3871 8.40872 11.2311 8.40872 11.0683V7.38634C8.40872 7.22359 8.47337 7.0675 8.58846 6.95242C8.70354 6.83733 8.85963 6.77268 9.02238 6.77268Z" fill="#D92D20"/>
</svg>
