<svg width="14" height="18" viewBox="0 0 14 18" fill="none" xmlns="http://www.w3.org/2000/svg">
<path d="M4.50016 7.33334H5.3335C5.55451 7.33334 5.76647 7.24554 5.92275 7.08926C6.07903 6.93298 6.16683 6.72102 6.16683 6.50001C6.16683 6.27899 6.07903 6.06703 5.92275 5.91075C5.76647 5.75447 5.55451 5.66667 5.3335 5.66667H4.50016C4.27915 5.66667 4.06719 5.75447 3.91091 5.91075C3.75463 6.06703 3.66683 6.27899 3.66683 6.50001C3.66683 6.72102 3.75463 6.93298 3.91091 7.08926C4.06719 7.24554 4.27915 7.33334 4.50016 7.33334ZM4.50016 9.00001C4.27915 9.00001 4.06719 9.0878 3.91091 9.24408C3.75463 9.40036 3.66683 9.61232 3.66683 9.83334C3.66683 10.0544 3.75463 10.2663 3.91091 10.4226C4.06719 10.5789 4.27915 10.6667 4.50016 10.6667H9.50016C9.72118 10.6667 9.93314 10.5789 10.0894 10.4226C10.2457 10.2663 10.3335 10.0544 10.3335 9.83334C10.3335 9.61232 10.2457 9.40036 10.0894 9.24408C9.93314 9.0878 9.72118 9.00001 9.50016 9.00001H4.50016ZM13.6668 6.45001C13.6581 6.37345 13.6414 6.29803 13.6168 6.22501V6.15001C13.5768 6.06432 13.5233 5.98556 13.4585 5.91667L8.4585 0.916672C8.38961 0.851852 8.31085 0.798406 8.22516 0.758338C8.20029 0.754805 8.17504 0.754805 8.15016 0.758338C8.06551 0.709789 7.97202 0.678625 7.87516 0.666672H2.8335C2.17045 0.666672 1.53457 0.930064 1.06573 1.3989C0.596888 1.86775 0.333496 2.50363 0.333496 3.16667V14.8333C0.333496 15.4964 0.596888 16.1323 1.06573 16.6011C1.53457 17.0699 2.17045 17.3333 2.8335 17.3333H11.1668C11.8299 17.3333 12.4658 17.0699 12.9346 16.6011C13.4034 16.1323 13.6668 15.4964 13.6668 14.8333V6.50001C13.6668 6.50001 13.6668 6.50001 13.6668 6.45001ZM8.66683 3.50834L10.8252 5.66667H9.50016C9.27915 5.66667 9.06719 5.57887 8.91091 5.42259C8.75463 5.26631 8.66683 5.05435 8.66683 4.83334V3.50834ZM12.0002 14.8333C12.0002 15.0544 11.9124 15.2663 11.7561 15.4226C11.5998 15.5789 11.3878 15.6667 11.1668 15.6667H2.8335C2.61248 15.6667 2.40052 15.5789 2.24424 15.4226C2.08796 15.2663 2.00016 15.0544 2.00016 14.8333V3.16667C2.00016 2.94566 2.08796 2.7337 2.24424 2.57742C2.40052 2.42114 2.61248 2.33334 2.8335 2.33334H7.00016V4.83334C7.00016 5.49638 7.26355 6.13227 7.7324 6.60111C8.20124 7.06995 8.83712 7.33334 9.50016 7.33334H12.0002V14.8333ZM9.50016 12.3333H4.50016C4.27915 12.3333 4.06719 12.4211 3.91091 12.5774C3.75463 12.7337 3.66683 12.9457 3.66683 13.1667C3.66683 13.3877 3.75463 13.5996 3.91091 13.7559C4.06719 13.9122 4.27915 14 4.50016 14H9.50016C9.72118 14 9.93314 13.9122 10.0894 13.7559C10.2457 13.5996 10.3335 13.3877 10.3335 13.1667C10.3335 12.9457 10.2457 12.7337 10.0894 12.5774C9.93314 12.4211 9.72118 12.3333 9.50016 12.3333Z" fill="black"/>
</svg>
