<svg width="34" height="38" viewBox="0 0 34 38" fill="none" xmlns="http://www.w3.org/2000/svg">
<path d="M24.8333 14.5917C24.8333 14.665 24.8333 14.74 24.8283 14.8133C24.3581 14.3956 23.7507 14.1654 23.1217 14.1667C22.8517 14.1667 22.5883 14.2083 22.3333 14.29V7.08333C22.3333 6.75181 22.2016 6.43387 21.9672 6.19945C21.7328 5.96503 21.4149 5.83333 21.0833 5.83333H6.91667C6.58515 5.83333 6.26721 5.96503 6.03279 6.19945C5.79837 6.43387 5.66667 6.75181 5.66667 7.08333V14.5917C5.66667 15.2817 6.22667 15.8417 6.91667 15.8417H20.71L20.6933 15.8833L20.6883 15.9033L19.9383 18.21L19.9217 18.2533C19.9116 18.283 19.9011 18.3124 19.89 18.3417H6.91667C5.92211 18.3417 4.96828 17.9466 4.26502 17.2433C3.56176 16.5401 3.16667 15.5862 3.16667 14.5917V7.08333C3.16667 6.08877 3.56176 5.13494 4.26502 4.43168C4.96828 3.72842 5.92211 3.33333 6.91667 3.33333H12.75V2.08333C12.7501 1.78102 12.8597 1.48897 13.0586 1.26129C13.2575 1.0336 13.5321 0.88571 13.8317 0.844999L14 0.833332C14.3023 0.8334 14.5944 0.943026 14.8221 1.1419C15.0497 1.34078 15.1976 1.61544 15.2383 1.915L15.25 2.08333L15.2483 3.33333H21.0817C22.0762 3.33333 23.0301 3.72842 23.7333 4.43168C24.4366 5.13494 24.8317 6.08877 24.8317 7.08333L24.8333 14.5917ZM15.7383 20.8933L15.925 20.8333H4.42334C3.42878 20.8333 2.47495 21.2284 1.77169 21.9317C1.06843 22.6349 0.67334 23.5888 0.67334 24.5833V26.095C0.673177 26.9951 0.867432 27.8846 1.24282 28.7027C1.61821 29.5208 2.16587 30.2481 2.84834 30.835C5.45334 33.0733 9.18501 34.1683 14 34.1683C17.46 34.1683 20.3617 33.6033 22.6883 32.455C22.2457 32.3711 21.8329 32.1726 21.491 31.8793C21.1491 31.5859 20.8902 31.208 20.74 30.7833L20.7333 30.7633L20.6833 30.6083C18.8733 31.3117 16.65 31.6683 14 31.6683C9.73501 31.6683 6.57501 30.7417 4.47834 28.9383C4.06894 28.5863 3.7404 28.15 3.51517 27.6593C3.28994 27.1685 3.17334 26.6349 3.17334 26.095V24.5833C3.17334 24.2518 3.30504 23.9339 3.53946 23.6994C3.77388 23.465 4.09182 23.3333 4.42334 23.3333H14V23.3283C13.9999 22.7957 14.1651 22.2762 14.4729 21.8415C14.7807 21.4068 15.2159 21.0784 15.7183 20.9017L15.7383 20.8933ZM12.3317 10.4167C12.3396 10.1382 12.2915 9.86104 12.1904 9.6015C12.0893 9.34195 11.9372 9.10532 11.743 8.90559C11.5488 8.70586 11.3166 8.54709 11.06 8.43868C10.8034 8.33027 10.5277 8.27441 10.2492 8.27441C9.97063 8.27441 9.69491 8.33027 9.43833 8.43868C9.18174 8.54709 8.9495 8.70586 8.75535 8.90559C8.56119 9.10532 8.40906 9.34195 8.30795 9.6015C8.20683 9.86104 8.15879 10.1382 8.16667 10.4167C8.18201 10.9588 8.40814 11.4735 8.79702 11.8516C9.18589 12.2296 9.70684 12.4411 10.2492 12.4411C10.7915 12.4411 11.3125 12.2296 11.7013 11.8516C12.0902 11.4735 12.3163 10.9588 12.3317 10.4167ZM17.7367 8.33333C18.0151 8.32545 18.2923 8.37349 18.5518 8.47461C18.8114 8.57572 19.048 8.72785 19.2478 8.92201C19.4475 9.11616 19.6062 9.3484 19.7147 9.60499C19.8231 9.86157 19.8789 10.1373 19.8789 10.4158C19.8789 10.6944 19.8231 10.9701 19.7147 11.2267C19.6062 11.4833 19.4475 11.7155 19.2478 11.9097C19.048 12.1038 18.8114 12.2559 18.5518 12.3571C18.2923 12.4582 18.0151 12.5062 17.7367 12.4983C17.1946 12.483 16.6798 12.2569 16.3018 11.868C15.9237 11.4791 15.7123 10.9582 15.7123 10.4158C15.7123 9.8735 15.9237 9.35254 16.3018 8.96367C16.6798 8.5748 17.1946 8.34867 17.7367 8.33333ZM20.815 26.52C20.241 25.7779 19.4588 25.2237 18.5683 24.9283L16.2733 24.1817C16.097 24.1189 15.9444 24.0031 15.8365 23.8502C15.7286 23.6972 15.6707 23.5147 15.6707 23.3275C15.6707 23.1403 15.7286 22.9578 15.8365 22.8048C15.9444 22.6519 16.097 22.5361 16.2733 22.4733L18.5683 21.7267C19.2483 21.4922 19.8658 21.1059 20.3741 20.597C20.8823 20.0882 21.268 19.4702 21.5017 18.79L21.5183 18.7333L22.2667 16.4383C22.3291 16.2614 22.4448 16.1083 22.598 15.9999C22.7511 15.8915 22.9341 15.8334 23.1217 15.8334C23.3093 15.8334 23.4922 15.8915 23.6454 15.9999C23.7985 16.1083 23.9143 16.2614 23.9767 16.4383L24.7233 18.7333C24.9557 19.4309 25.3476 20.0647 25.8678 20.5843C26.388 21.1039 27.0222 21.4951 27.72 21.7267L30.0167 22.4733L30.0617 22.485C30.238 22.5478 30.3906 22.6636 30.4985 22.8165C30.6064 22.9694 30.6643 23.152 30.6643 23.3392C30.6643 23.5263 30.6064 23.7089 30.4985 23.8618C30.3906 24.0148 30.238 24.1306 30.0617 24.1933L27.765 24.94C27.0673 25.1718 26.4332 25.563 25.913 26.0826C25.3929 26.6022 25.0009 27.2359 24.7683 27.9333L24.0233 30.2283C23.9598 30.4052 23.8434 30.5582 23.69 30.6667C23.5756 30.7476 23.4439 30.8009 23.3054 30.8223C23.1669 30.8438 23.0254 30.8329 22.8918 30.7904C22.7582 30.7479 22.6363 30.6751 22.5357 30.5775C22.435 30.48 22.3584 30.3605 22.3117 30.2283L21.565 27.9333C21.3972 27.423 21.1436 26.945 20.815 26.52ZM33.6383 32.855L32.3633 32.4417C31.9756 32.3129 31.6233 32.0955 31.3343 31.8068C31.0452 31.518 30.8275 31.1659 30.6983 30.7783L30.2833 29.5033C30.2488 29.4049 30.1846 29.3196 30.0995 29.2592C30.0144 29.1989 29.9127 29.1665 29.8083 29.1665C29.704 29.1665 29.6023 29.1989 29.5172 29.2592C29.4321 29.3196 29.3678 29.4049 29.3333 29.5033L28.9183 30.7767C28.7921 31.1617 28.5785 31.5123 28.2943 31.8012C28.0101 32.09 27.663 32.3092 27.28 32.4417L26.0033 32.855C25.9049 32.8895 25.8196 32.9538 25.7593 33.0388C25.6989 33.1239 25.6665 33.2257 25.6665 33.33C25.6665 33.4343 25.6989 33.5361 25.7593 33.6212C25.8196 33.7062 25.9049 33.7705 26.0033 33.805L27.28 34.22C27.6685 34.3493 28.0214 34.5677 28.3105 34.8576C28.5995 35.1476 28.8168 35.5011 28.945 35.89L29.3583 37.1633C29.3936 37.261 29.4581 37.3455 29.5431 37.4052C29.6281 37.4648 29.7295 37.4969 29.8333 37.4969C29.9372 37.4969 30.0385 37.4648 30.1235 37.4052C30.2085 37.3455 30.2731 37.261 30.3083 37.1633L30.725 35.89C30.8536 35.5022 31.0709 35.1497 31.3596 34.8606C31.6484 34.5716 32.0006 34.3539 32.3883 34.225L33.665 33.8117C33.7635 33.7772 33.8487 33.7129 33.9091 33.6278C33.9694 33.5427 34.0018 33.441 34.0018 33.3367C34.0018 33.2323 33.9694 33.1306 33.9091 33.0455C33.8487 32.9604 33.7635 32.8962 33.665 32.8617L33.6383 32.855Z" fill="#6245E7"/>
</svg>
