<svg width="11" height="8" viewBox="0 0 11 8" fill="none" xmlns="http://www.w3.org/2000/svg">
<path d="M10.5002 1.17C10.3128 0.983753 10.0594 0.879211 9.79519 0.879211C9.53101 0.879211 9.27756 0.983753 9.09019 1.17L5.50019 4.71L1.96019 1.17C1.77283 0.983753 1.51938 0.879211 1.25519 0.879211C0.991007 0.879211 0.737555 0.983753 0.550193 1.17C0.456464 1.26297 0.38207 1.37357 0.331301 1.49543C0.280533 1.61729 0.254395 1.74799 0.254395 1.88C0.254395 2.01202 0.280533 2.14272 0.331301 2.26458C0.38207 2.38644 0.456464 2.49704 0.550193 2.59L4.79019 6.83C4.88316 6.92373 4.99376 6.99813 5.11562 7.04889C5.23747 7.09966 5.36818 7.1258 5.50019 7.1258C5.6322 7.1258 5.76291 7.09966 5.88477 7.04889C6.00663 6.99813 6.11723 6.92373 6.21019 6.83L10.5002 2.59C10.5939 2.49704 10.6683 2.38644 10.7191 2.26458C10.7699 2.14272 10.796 2.01202 10.796 1.88C10.796 1.74799 10.7699 1.61729 10.7191 1.49543C10.6683 1.37357 10.5939 1.26297 10.5002 1.17Z" fill="black"/>
</svg>
