<svg width="36" height="37" viewBox="0 0 36 37" fill="none" xmlns="http://www.w3.org/2000/svg">
<path d="M15.4286 31.3571H28.2857C28.9677 31.3571 29.6218 31.0862 30.104 30.604C30.5862 30.1218 30.8571 29.4677 30.8571 28.7857V15.9286H15.4286V31.3571ZM10.2857 31.3571V15.9286H5.14286V28.7857C5.14286 29.4677 5.41377 30.1218 5.89601 30.604C6.37825 31.0862 7.0323 31.3571 7.71429 31.3571H10.2857ZM30.8571 8.21429C30.8571 7.5323 30.5862 6.87825 30.104 6.39601C29.6218 5.91377 28.9677 5.64286 28.2857 5.64286H7.71429C7.0323 5.64286 6.37825 5.91377 5.89601 6.39601C5.41377 6.87825 5.14286 7.5323 5.14286 8.21429V10.7857H30.8571V8.21429ZM7.71429 0.5H28.2857C30.3317 0.5 32.2938 1.31275 33.7405 2.75946C35.1872 4.20617 36 6.16833 36 8.21429V28.7857C36 30.8317 35.1872 32.7938 33.7405 34.2405C32.2938 35.6872 30.3317 36.5 28.2857 36.5H7.71429C5.66833 36.5 3.70617 35.6872 2.25946 34.2405C0.812753 32.7938 0 30.8317 0 28.7857L0 8.21429C0 6.16833 0.812753 4.20617 2.25946 2.75946C3.70617 1.31275 5.66833 0.5 7.71429 0.5Z" fill="#6245E7"/>
</svg>
